<?xml version="1.0" standalone="no"?>
<!DOCTYPE svg PUBLIC "-//W3C//DTD SVG 20010904//EN"
 "http://www.w3.org/TR/2001/REC-SVG-20010904/DTD/svg10.dtd">
<svg version="1.0" xmlns="http://www.w3.org/2000/svg"
 width="89.000000pt" height="71.000000pt" viewBox="0 0 89.000000 71.000000"
 preserveAspectRatio="xMidYMid meet">

<g transform="translate(0.000000,71.000000) scale(0.100000,-0.100000)"
fill="#000000" stroke="none">
<path d="M360 359 l0 -121 71 4 c65 3 74 6 100 36 22 24 29 42 29 72 0 88 -45
130 -142 130 l-58 0 0 -121z m121 75 c20 -5 39 -46 39 -83 0 -34 -33 -71 -65
-71 -13 0 -30 -3 -39 -6 -14 -5 -16 6 -16 86 l0 92 33 -7 c17 -4 39 -8 48 -11z"/>
<path d="M214 408 l-45 -41 38 -39 c39 -40 66 -54 84 -42 7 4 -2 19 -25 40
-20 18 -36 37 -36 42 0 5 15 21 34 37 19 16 33 33 30 37 -11 17 -36 6 -80 -34z"/>
<path d="M606 441 c-3 -5 10 -23 30 -41 l37 -32 -37 -37 c-34 -35 -38 -51 -11
-51 17 0 95 70 95 85 0 17 -76 85 -94 85 -8 0 -17 -4 -20 -9z"/>
</g>
</svg>
